<?xml version="1.0" encoding="utf-8"?>
<!-- Generator: Adobe Illustrator 15.0.0, SVG Export Plug-In . SVG Version: 6.00 Build 0)  -->
<!DOCTYPE svg PUBLIC "-//W3C//DTD SVG 1.1//EN" "http://www.w3.org/Graphics/SVG/1.1/DTD/svg11.dtd">
<svg version="1.1" id="Layer_1" xmlns="http://www.w3.org/2000/svg" xmlns:xlink="http://www.w3.org/1999/xlink" x="0px" y="0px"
	 width="1024px" height="768px" viewBox="0 0 1024 768" enable-background="new 0 0 1024 768" xml:space="preserve">
<g>
	<g>
		<path fill="#1D1D1B" d="M181.667,495.187h8.87c1.804,0,3.421,0.156,4.851,0.47c1.427,0.312,2.643,0.831,3.645,1.554
			c1.004,0.721,1.766,1.658,2.291,2.809c0.525,1.151,0.787,2.559,0.787,4.236c0,3.184-1.017,5.558-3.053,7.115
			c-2.036,1.565-4.877,2.342-8.521,2.342h-6.604v13.944h-2.266V495.187z M189.994,511.79c3.315,0,5.779-0.586,7.388-1.771
			c1.608-1.183,2.414-3.104,2.414-5.764c0-1.381-0.205-2.521-0.615-3.425c-0.411-0.901-1.02-1.632-1.824-2.19
			c-0.805-0.559-1.822-0.955-3.054-1.186c-1.231-0.228-2.67-0.346-4.31-0.346h-6.062v14.682H189.994z"/>
		<path fill="#1D1D1B" d="M219.061,495.187h17.786v1.972h-15.52v12.27h13.008v1.973h-13.008v14.283h16.011v1.973h-18.277V495.187z"
			/>
		<path fill="#1D1D1B" d="M272.27,527.656l-8.821-14.929h-6.896v14.929h-2.265v-32.47h9.31c1.608,0,3.073,0.156,4.386,0.47
			c1.312,0.312,2.429,0.815,3.349,1.502c0.921,0.692,1.634,1.577,2.145,2.66c0.508,1.083,0.762,2.402,0.762,3.944
			c0,2.591-0.748,4.633-2.24,6.105c-1.497,1.481-3.525,2.387-6.086,2.709l8.966,15.079H272.27z M263.007,510.857
			c2.889,0,5.098-0.587,6.626-1.75c1.527-1.167,2.291-2.948,2.291-5.345c0-2.431-0.771-4.146-2.315-5.151
			c-1.545-1.001-3.743-1.503-6.602-1.503h-6.455v13.749H263.007z"/>
		<path fill="#1D1D1B" d="M290.001,521.796c1.185,1.346,2.595,2.413,4.237,3.201c1.643,0.789,3.4,1.18,5.275,1.18
			c2.494,0,4.464-0.599,5.91-1.794c1.444-1.201,2.168-2.771,2.168-4.711c0-1.017-0.157-1.872-0.466-2.559
			c-0.313-0.692-0.733-1.291-1.257-1.798c-0.525-0.508-1.143-0.956-1.85-1.331c-0.707-0.378-1.453-0.746-2.24-1.111l-4.927-2.21
			c-0.725-0.298-1.47-0.66-2.24-1.091c-0.774-0.425-1.48-0.955-2.121-1.598s-1.173-1.397-1.6-2.269
			c-0.428-0.866-0.64-1.911-0.64-3.129c0-1.177,0.238-2.258,0.712-3.221c0.477-0.976,1.134-1.812,1.972-2.515
			c0.838-0.711,1.839-1.259,3.006-1.655c1.165-0.391,2.422-0.587,3.768-0.587c1.972,0,3.721,0.387,5.246,1.157
			c1.528,0.771,2.785,1.682,3.771,2.732l-1.282,1.529c-0.952-1.022-2.07-1.831-3.35-2.44c-1.282-0.61-2.743-0.91-4.385-0.91
			c-2.167,0-3.908,0.524-5.224,1.575c-1.312,1.049-1.969,2.465-1.969,4.24c0,0.949,0.18,1.754,0.542,2.412
			c0.361,0.655,0.821,1.224,1.381,1.698c0.559,0.476,1.165,0.891,1.821,1.23c0.659,0.347,1.282,0.653,1.875,0.915l4.924,2.168
			c0.92,0.393,1.791,0.839,2.612,1.329c0.821,0.491,1.543,1.067,2.167,1.723c0.626,0.658,1.126,1.441,1.503,2.34
			c0.377,0.905,0.567,1.981,0.567,3.229c0,1.245-0.245,2.408-0.74,3.475c-0.492,1.065-1.19,1.982-2.092,2.753
			c-0.906,0.777-1.995,1.382-3.277,1.828c-1.282,0.44-2.709,0.664-4.284,0.664c-2.367,0-4.47-0.452-6.307-1.359
			c-1.842-0.896-3.4-2.071-4.682-3.517L290.001,521.796z"/>
		<path fill="#1D1D1B" d="M337.841,528.248c-1.938,0-3.729-0.402-5.371-1.207c-1.642-0.805-3.054-1.949-4.234-3.423
			c-1.184-1.481-2.104-3.264-2.761-5.348c-0.659-2.084-0.986-4.408-0.986-6.971c0-2.561,0.327-4.866,0.986-6.925
			c0.657-2.048,1.577-3.808,2.761-5.273c1.181-1.457,2.592-2.574,4.234-3.345c1.643-0.771,3.433-1.157,5.371-1.157
			c1.97,0,3.777,0.387,5.42,1.157c1.642,0.771,3.055,1.888,4.237,3.345c1.182,1.466,2.1,3.226,2.759,5.273
			c0.656,2.059,0.984,4.364,0.984,6.925c0,2.562-0.328,4.887-0.984,6.971c-0.659,2.084-1.578,3.866-2.759,5.348
			c-1.182,1.474-2.595,2.618-4.237,3.423C341.619,527.846,339.812,528.248,337.841,528.248z M337.841,526.177
			c1.643,0,3.137-0.354,4.483-1.058c1.347-0.708,2.503-1.709,3.473-3.005c0.969-1.295,1.717-2.86,2.242-4.681
			c0.525-1.821,0.788-3.865,0.788-6.134c0-2.236-0.263-4.252-0.788-6.063c-0.525-1.804-1.273-3.34-2.242-4.603
			c-0.969-1.262-2.126-2.238-3.473-2.934c-1.346-0.687-2.841-1.032-4.483-1.032s-3.145,0.346-4.508,1.032
			c-1.363,0.695-2.522,1.672-3.472,2.934c-0.956,1.263-1.693,2.799-2.218,4.603c-0.525,1.812-0.788,3.827-0.788,6.063
			c0,2.269,0.262,4.312,0.788,6.134c0.525,1.82,1.262,3.386,2.218,4.681c0.949,1.296,2.108,2.297,3.472,3.005
			C334.696,525.822,336.199,526.177,337.841,526.177z"/>
		<path fill="#1D1D1B" d="M368.534,495.187h2.363l13.698,22.91l3.646,6.454h0.195c-0.064-1.577-0.131-3.151-0.195-4.727
			c-0.068-1.575-0.098-3.157-0.098-4.732v-19.905h2.167v32.47h-2.366l-13.695-22.911l-3.646-6.452h-0.198
			c0.067,1.576,0.132,3.111,0.198,4.608c0.064,1.492,0.099,3.029,0.099,4.603v20.152h-2.168V495.187z"/>
		<path fill="#1D1D1B" d="M424.304,516.523h-12.859l-3.844,11.133h-2.265l11.431-32.47h2.265l11.431,32.47h-2.363L424.304,516.523z
			 M423.662,514.602l-2.067-6.062c-0.659-1.939-1.282-3.794-1.874-5.565c-0.59-1.775-1.166-3.663-1.723-5.663h-0.199
			c-0.559,2-1.131,3.888-1.723,5.663c-0.592,1.771-1.216,3.626-1.872,5.565l-2.069,6.062H423.662z"/>
		<path fill="#1D1D1B" d="M445.489,495.187h2.265v30.497h14.978v1.973h-17.243V495.187z"/>
		<path fill="#1D1D1B" d="M496.968,521.796c1.185,1.346,2.596,2.413,4.238,3.201c1.643,0.789,3.399,1.18,5.273,1.18
			c2.496,0,4.464-0.599,5.917-1.794c1.441-1.201,2.167-2.771,2.167-4.711c0-1.017-0.154-1.872-0.469-2.559
			c-0.312-0.692-0.737-1.291-1.263-1.798c-0.525-0.508-1.139-0.956-1.843-1.331c-0.71-0.378-1.452-0.746-2.243-1.111l-4.928-2.21
			c-0.724-0.298-1.47-0.66-2.24-1.091c-0.774-0.425-1.48-0.955-2.12-1.598s-1.173-1.397-1.601-2.269
			c-0.426-0.866-0.64-1.911-0.64-3.129c0-1.177,0.238-2.258,0.712-3.221c0.479-0.976,1.134-1.812,1.973-2.515
			c0.838-0.711,1.838-1.259,3.005-1.655c1.166-0.391,2.423-0.587,3.769-0.587c1.972,0,3.72,0.387,5.251,1.157
			c1.521,0.771,2.783,1.682,3.766,2.732l-1.284,1.529c-0.951-1.022-2.068-1.831-3.353-2.44c-1.274-0.61-2.738-0.91-4.38-0.91
			c-2.167,0-3.908,0.524-5.224,1.575c-1.312,1.049-1.968,2.465-1.968,4.24c0,0.949,0.178,1.754,0.541,2.412
			c0.36,0.655,0.821,1.224,1.379,1.698c0.559,0.476,1.166,0.891,1.822,1.23c0.659,0.347,1.282,0.653,1.874,0.915l4.927,2.168
			c0.917,0.393,1.788,0.839,2.615,1.329c0.816,0.491,1.542,1.067,2.167,1.723c0.615,0.658,1.117,1.441,1.498,2.34
			c0.379,0.905,0.569,1.981,0.569,3.229c0,1.245-0.245,2.408-0.737,3.475c-0.492,1.065-1.195,1.982-2.101,2.753
			c-0.904,0.777-1.989,1.382-3.273,1.828c-1.285,0.44-2.71,0.664-4.286,0.664c-2.365,0-4.469-0.452-6.307-1.359
			c-1.84-0.896-3.399-2.071-4.682-3.517L496.968,521.796z"/>
		<path fill="#1D1D1B" d="M533.524,495.187h2.269v18.033h0.1l15.716-18.033h2.709l-10.347,12.023l11.776,20.446h-2.614
			l-10.738-18.721l-6.602,7.537v11.184h-2.269V495.187z"/>
		<path fill="#1D1D1B" d="M570.863,495.187h2.269v32.47h-2.269V495.187z"/>
		<path fill="#1D1D1B" d="M592.546,495.187h2.368l13.692,22.91l3.648,6.454h0.195c-0.067-1.577-0.128-3.151-0.195-4.727
			c-0.066-1.575-0.101-3.157-0.101-4.732v-19.905h2.168v32.47h-2.363l-13.698-22.911l-3.643-6.452h-0.195
			c0.061,1.576,0.128,3.111,0.195,4.608c0.067,1.492,0.095,3.029,0.095,4.603v20.152h-2.167V495.187z"/>
		<path fill="#1D1D1B" d="M653.389,495.187h7.542c2.491,0,4.67,0.38,6.524,1.135c1.854,0.761,3.393,1.844,4.609,3.251
			c1.212,1.414,2.117,3.105,2.71,5.077c0.592,1.968,0.888,4.187,0.888,6.65c0,2.463-0.296,4.703-0.888,6.725
			c-0.593,2.018-1.498,3.741-2.71,5.173c-1.217,1.432-2.743,2.53-4.581,3.302c-1.843,0.771-4.011,1.157-6.503,1.157h-7.592V495.187z
			 M660.685,525.736c2.196,0,4.095-0.354,5.687-1.063c1.593-0.704,2.899-1.699,3.917-2.977c1.016-1.281,1.776-2.801,2.268-4.561
			c0.491-1.754,0.738-3.704,0.738-5.836c0-2.102-0.247-4.021-0.738-5.768c-0.491-1.737-1.252-3.233-2.268-4.479
			c-1.018-1.251-2.324-2.218-3.917-2.906c-1.592-0.693-3.49-1.039-5.687-1.039h-5.028v28.628H660.685z"/>
		<path fill="#1D1D1B" d="M692.997,495.187h17.787v1.972h-15.519v12.27h13.005v1.973h-13.005v14.283h16.01v1.973h-18.278V495.187z"
			/>
		<path fill="#1D1D1B" d="M723.639,495.187h2.414l6.012,18.972c0.625,1.969,1.188,3.782,1.703,5.441
			c0.509,1.66,1.089,3.474,1.748,5.447h0.196c0.329-0.988,0.632-1.924,0.909-2.811c0.281-0.887,0.549-1.764,0.816-2.637
			c0.263-0.872,0.531-1.749,0.811-2.636c0.279-0.884,0.564-1.822,0.86-2.806l6.011-18.972h2.319l-10.643,32.47h-2.413
			L723.639,495.187z"/>
		<path fill="#1D1D1B" d="M762.265,495.187h2.269v32.47h-2.269V495.187z"/>
		<path fill="#1D1D1B" d="M781.874,511.35c0-2.564,0.335-4.879,1.011-6.944c0.671-2.074,1.613-3.838,2.832-5.304
			c1.212-1.457,2.676-2.574,4.385-3.345c1.704-0.771,3.599-1.157,5.665-1.157c1.871,0,3.53,0.393,4.978,1.181
			c1.441,0.787,2.593,1.692,3.447,2.709l-1.38,1.479c-0.855-0.989-1.872-1.781-3.056-2.391c-1.178-0.61-2.508-0.91-3.989-0.91
			c-1.775,0-3.375,0.346-4.804,1.032c-1.431,0.695-2.643,1.672-3.642,2.934c-1.006,1.263-1.772,2.799-2.298,4.603
			c-0.525,1.812-0.786,3.846-0.786,6.113c0,2.269,0.261,4.312,0.786,6.135c0.525,1.819,1.287,3.373,2.269,4.652
			c0.983,1.285,2.179,2.274,3.57,2.982c1.396,0.703,2.966,1.058,4.709,1.058c1.677,0,3.157-0.324,4.459-0.985
			c1.294-0.652,2.536-1.657,3.721-3.005l1.378,1.432c-1.251,1.447-2.648,2.574-4.189,3.396c-1.548,0.82-3.367,1.234-5.47,1.234
			c-2.004,0-3.842-0.398-5.519-1.185c-1.676-0.787-3.11-1.91-4.307-3.373c-1.201-1.46-2.128-3.235-2.789-5.319
			C782.203,516.283,781.874,513.94,781.874,511.35z"/>
		<path fill="#1D1D1B" d="M821.582,495.187h17.788v1.972h-15.52v12.27h13.006v1.973h-13.006v14.283h16.011v1.973h-18.279V495.187z"
			/>
	</g>
	<g>
		<line fill="#1D1D1B" x1="181.667" y1="450.49" x2="837.125" y2="450.49"/>
		<rect x="181.667" y="449.096" fill="#1D1D1B" width="655.458" height="2.791"/>
	</g>
	<path fill="#676767" d="M347.2,328.459c0,11.654-2.017,22.379-6.044,32.156c-4.028,9.79-9.604,18.239-16.727,25.367
		c-7.123,7.118-15.539,12.699-25.251,16.723c-9.712,4.031-20.253,6.049-31.623,6.049c-11.369,0-21.91-2.018-31.622-6.049
		c-9.713-4.023-18.127-9.604-25.251-16.723c-7.123-7.128-12.705-15.578-16.726-25.367c-4.034-9.777-6.045-20.502-6.045-32.156
		c0-11.663,2.011-22.378,6.045-32.167c4.021-9.778,9.603-18.237,16.726-25.355c7.124-7.128,15.539-12.699,25.251-16.732
		c9.712-4.023,20.253-6.039,31.622-6.039c11.37,0,21.91,2.016,31.623,6.039c9.712,4.033,18.128,9.604,25.251,16.732
		c7.124,7.118,12.699,15.577,16.727,25.355C345.184,306.082,347.2,316.796,347.2,328.459z M330.365,328.459
		c0-8.775-1.439-17.158-4.317-25.147c-2.877-7.991-7.014-15-12.41-21.05c-5.396-6.039-11.979-10.856-19.747-14.454
		c-7.772-3.598-16.552-5.396-26.336-5.396c-9.789,0-18.563,1.798-26.335,5.396c-7.766,3.598-14.351,8.415-19.747,14.454
		c-5.396,6.05-9.532,13.059-12.411,21.05c-2.877,7.989-4.315,16.372-4.315,25.147c0,8.774,1.438,17.157,4.315,25.148
		c2.879,7.979,7.015,14.999,12.411,21.038c5.396,6.049,11.98,10.869,19.747,14.465c7.772,3.597,16.547,5.396,26.335,5.396
		c9.784,0,18.564-1.8,26.336-5.396c7.767-3.597,14.351-8.416,19.747-14.465c5.396-6.039,9.532-13.059,12.41-21.038
		C328.925,345.617,330.365,337.234,330.365,328.459z"/>
	<path fill="#676767" d="M405.202,400.676c0-5.166,0.038-9.266,0.038-12.001h-0.425c-1.591,2.735-3.602,5.253-6.049,7.554
		c-2.447,2.311-5.178,4.283-8.197,5.941c-3.025,1.656-6.225,2.943-9.604,3.879c-3.389,0.938-6.73,1.406-10.04,1.406
		c-12.949,0-22.52-3.422-28.712-10.256c-6.18-6.834-9.275-16.58-9.275-29.247v-42.218h14.246v34.021
		c0,5.614,0.432,10.575,1.292,14.89c0.867,4.317,2.338,7.958,4.426,10.902c2.087,2.953,4.889,5.176,8.42,6.693
		c3.521,1.515,7.946,2.267,13.271,2.267c0.72,0,2.731-0.283,6.045-0.862c3.308-0.577,6.801-2.156,10.464-4.753
		c3.673-2.595,6.943-6.474,9.822-11.652c2.877-5.178,4.315-12.371,4.315-21.583c0,0,0-49.03,0-51.81c0-5.57,2.752-7.837,6.939-7.837
		c4.622,0,7.309,2.615,7.309,7.837c0,2.715,0,78.79,0,78.79c0,2.736,0.125,13.004,0.125,18.04s-4.294,6.691-7.172,6.691
		C409.388,407.367,405.202,405.842,405.202,400.676z"/>
	<path fill="#676767" d="M470.055,264.997c0,3.019-1.08,5.505-3.238,7.445c-2.158,1.951-4.535,2.922-7.129,2.922
		c-2.583,0-4.96-0.971-7.118-2.922c-2.159-1.94-3.237-4.426-3.237-7.445c0-3.02,1.079-5.505,3.237-7.445
		c2.158-1.94,4.534-2.911,7.118-2.911c2.594,0,4.971,0.971,7.129,2.911S470.055,261.978,470.055,264.997z M466.817,400.676
		c0,4.947-3.886,6.691-7.2,6.691c-3.139,0-7.047-1.744-7.047-6.691c0-4.121,0-92.566,0-96.83c0-5.308,2.687-7.837,7.047-7.837
		c4.447,0,7.2,2.529,7.2,7.837C466.817,308.305,466.817,396.164,466.817,400.676z"/>
	<path fill="#676767" d="M726.081,262.555c0,3.02-1.079,5.505-3.237,7.445c-2.158,1.952-4.528,2.921-7.117,2.921
		c-2.595,0-4.966-0.97-7.125-2.921c-2.157-1.94-3.236-4.426-3.236-7.445c0-3.019,1.079-5.504,3.236-7.445
		c2.159-1.94,4.53-2.91,7.125-2.91c2.589,0,4.959,0.97,7.117,2.91C725.002,257.051,726.081,259.536,726.081,262.555z
		 M722.844,400.676c0,4.947-3.881,6.691-7.193,6.691c-3.141,0-7.049-1.744-7.049-6.691c0-4.121,0-95.009,0-99.272
		c0-5.307,2.688-7.837,7.049-7.837c4.446,0,7.193,2.53,7.193,7.837C722.844,305.863,722.844,396.164,722.844,400.676z"/>
	<path fill="#676767" d="M516.382,273.085c3.097-2.594,6.736-4.61,10.901-6.05c4.175-1.438,8.633-2.158,13.386-2.158
		c7.63,0,14.427,1.581,20.395,4.752c5.974,3.161,11.772,9.396,13.669,11.282c4.077,4.077,8.416,2.812,10.906,0.708
		c2.485-2.104,3.783-6.551,1.183-9.712c-1.51-1.831-7.995-10.181-19.393-14.693c-8.485-3.521-17.768-5.288-27.839-5.288
		c-6.181,0-12.154,0.938-17.921,2.813c-5.744,1.864-10.823,4.632-15.206,8.306c-4.394,3.674-7.881,8.165-10.476,13.495
		c-2.583,5.32-3.881,11.435-3.881,18.346h0.098c0.109,6.703,1.189,12.417,3.304,17.049c2.229,4.895,5.216,8.96,8.96,12.196
		c3.739,3.238,7.946,5.866,12.622,7.872c4.678,2.015,9.501,3.813,14.466,5.395c4.96,1.592,9.777,3.171,14.455,4.753
		c4.676,1.58,8.883,3.488,12.633,5.722c3.738,2.235,6.726,5.069,8.95,8.524c2.233,3.455,3.347,7.849,3.347,13.167
		c0,4.601-0.895,8.743-2.693,12.406c-1.799,3.673-4.251,6.802-7.336,9.396c-3.097,2.584-6.736,4.599-10.901,6.039
		c-4.175,1.439-8.633,2.158-13.386,2.158c-7.63,0-14.427-1.582-20.395-4.753c-5.974-3.161-11.772-9.386-13.669-11.282
		c-4.077-4.078-8.416-2.802-10.906-0.698c-2.485,2.092-3.788,6.541-1.183,9.701c1.515,1.843,7.99,10.182,19.393,14.693
		c8.485,3.521,17.768,5.287,27.839,5.287c6.182,0,12.155-0.938,17.922-2.801c5.743-1.877,10.823-4.643,15.206-8.316
		c4.393-3.664,7.887-8.166,10.48-13.484c2.583-5.32,3.88-11.446,3.88-18.347c0-9.494-1.939-16.949-5.831-22.346
		c-3.886-5.395-8.737-9.602-14.569-12.624c-5.831-3.019-12.165-5.428-18.988-7.226c-6.846-1.798-13.168-3.891-18.999-6.268
		c-5.826-2.365-10.684-5.603-14.563-9.712c-3.892-4.099-5.832-9.962-5.832-17.583l0,0c0.131-4.164,0.981-7.957,2.638-11.336
		C510.846,278.808,513.298,275.669,516.382,273.085z"/>
	<path fill="#676767" d="M687.608,396.043c-2.557-2.375-34.271-32.025-47.57-44.452c16.629-15.097,38.594-35.034,39.64-35.993
		c3.636-3.369,2.654-7.326,0.687-9.475c-2.114-2.277-5.854-3.411-9.488-0.054c-2.345,2.169-31.818,28.897-47.876,43.483
		c0-43.723,0-99.969,0-102.553c0-4.186-3.858-5.428-6.475-5.428c-2.622,0-6.479,1.243-6.479,5.428c0,4.186,0,151.441,0,153.676
		c0,4.947,3.569,6.934,6.479,6.934c3.107,0,6.475-1.973,6.475-6.934c0-1.264,0-14.934,0-33.605c1.499-1.364,4.132-3.761,7.413-6.738
		c12.949,12.1,46.997,43.93,48.371,45.193c3.63,3.369,7.505,2.105,9.489-0.02C690.388,403.215,691.232,399.412,687.608,396.043z"/>
	<path fill="#676767" d="M745.142,330.76c0-1.863-0.087-21.365-0.087-24.046s3.641-5.385,6.698-5.385
		c3.053,0,6.104,2.922,6.104,5.385s-0.07,3.325,0,6.78c0.077,3.455,0.022,5.101,0.022,6.693h0.642
		c2.595-5.461,6.912-10.181,12.95-14.138c6.052-3.957,13.093-5.93,21.158-5.93c7.772,0,14.095,1.221,18.989,3.663
		c4.895,2.453,8.741,5.645,11.555,9.602c2.801,3.969,4.74,8.524,5.821,13.713c1.078,5.178,1.624,10.498,1.624,15.969
		c0,0,0,55.713,0,59.356c0,3.639-4.22,4.945-6.487,4.945c-2.267,0-6.463-1.262-6.463-4.945c0-3.688,0-58.712,0-58.712
		c0-4.023-0.366-7.947-1.08-11.763c-0.724-3.803-1.983-7.227-3.781-10.246c-1.799-3.03-4.317-5.428-7.554-7.239
		c-3.238-1.798-7.445-2.692-12.624-2.692c-4.752,0-9.248,0.829-13.494,2.486c-4.24,1.646-7.914,4.176-11.005,7.554
		c-3.102,3.38-5.542,7.62-7.342,12.731c-1.798,5.113-2.692,11.119-2.692,18.02c0,0,0,46.218,0,49.86
		c0,3.639-3.728,4.945-6.343,4.945c-2.617,0-6.611-1.35-6.611-4.945C745.142,398.822,745.142,330.76,745.142,330.76z"/>
</g>
</svg>
